HIERARCHY
ROOT hip
{
	OFFSET 0.000000 0.000000 0.000000 
	CHANNELS 6 Xposition Yposition Zposition Xrotation Zrotation Yrotation
	JOINT abdomen
	{
		OFFSET 0.000000 3.402643 0.000000 
		CHANNELS 3 Xrotation Zrotation Yrotation
		JOINT chest
		{
			OFFSET 0.000000 8.438565 -0.680529 
			CHANNELS 3 Xrotation Zrotation Yrotation
			JOINT neck
			{
				OFFSET 0.000000 10.207942 -0.272212 
				CHANNELS 3 Xrotation Zrotation Yrotation
				JOINT head
				{
					OFFSET 0.000000 3.130431 0.000000 
					CHANNELS 3 Xrotation Zrotation Yrotation
					End Site
					{
						OFFSET 0.000000 3.130435 0.000000 
					}
				}
			}
			JOINT lCollar
			{
				OFFSET 3.470700 6.669187 -0.816635 
				CHANNELS 3 Yrotation Zrotation Xrotation
				JOINT lShldr
				{
					OFFSET 3.198488 0.000000 0.000000 
					CHANNELS 3 Zrotation Yrotation Xrotation
					JOINT lForeArm
					{
						OFFSET 10.139888 0.000000 0.000000 
						CHANNELS 3 Yrotation Zrotation Xrotation
						JOINT lHand
						{
							OFFSET 8.370511 0.000000 0.000000 
							CHANNELS 3 Zrotation Yrotation Xrotation
							End Site
							{
								OFFSET 4.083176 0.000000 0.000000 
							}
						}
					}
				}
			}
			JOINT rCollar
			{
				OFFSET -3.470700 6.669187 -0.816635 
				CHANNELS 3 Yrotation Zrotation Xrotation
				JOINT rShldr
				{
					OFFSET -3.198488 0.000000 0.000000 
					CHANNELS 3 Zrotation Yrotation Xrotation
					JOINT rForeArm
					{
						OFFSET -10.139888 0.000000 0.000000 
						CHANNELS 3 Yrotation Zrotation Xrotation
						JOINT rHand
						{
							OFFSET -8.370511 0.000000 0.000000 
							CHANNELS 3 Zrotation Yrotation Xrotation
							End Site
							{
								OFFSET -4.083176 0.000000 0.000000 
							}
						}
					}
				}
			}
		}
	}
	JOINT lThigh
	{
		OFFSET 5.308129 -1.633274 1.361059 
		CHANNELS 3 Xrotation Zrotation Yrotation
		JOINT lShin
		{
			OFFSET -2.041588 -20.007561 0.000000 
			CHANNELS 3 Xrotation Zrotation Yrotation
			JOINT lFoot
			{
				OFFSET 0.000000 -19.190928 -1.224953 
				CHANNELS 3 Xrotation Yrotation Zrotation
				End Site
				{
					OFFSET 0.000000 -2.449906 4.627600 
				}
			}
		}
	}
	JOINT rThigh
	{
		OFFSET -5.308129 -1.633274 1.361059 
		CHANNELS 3 Xrotation Zrotation Yrotation
		JOINT rShin
		{
			OFFSET 2.041588 -20.007561 0.000000 
			CHANNELS 3 Xrotation Zrotation Yrotation
			JOINT rFoot
			{
				OFFSET 0.000000 -19.190928 -1.224953 
				CHANNELS 3 Xrotation Yrotation Zrotation
				End Site
				{
					OFFSET 0.000000 -2.449906 4.627600 
				}
			}
		}
	}
}
MOTION
Frames: 15
Frame Time: 0.033333
21.039402 52.262211 66.039963 -2.470703 1.044930 16.298893 29.187826 -12.245201 -6.876307 -10.341796 12.929688 7.033435 51.063168 8.107644 2.471410 -55.634766 -0.849609 -10.810547 2.000000 -2.000000 0.000000 -91.513672 -8.916016 21.875000 -55.504131 -1.680455 -2.196729 -2.646718 53.988926 3.371352 -2.000000 2.000000 0.000000 88.544922 -22.148439 3.183594 51.250717 1.708084 -1.999836 11.178850 -56.388824 -10.076965 8.727972 4.139284 -8.995017 15.854841 -5.588807 -1.688795 -8.154604 8.233171 -2.840881 -5.790066 -6.167597 -28.492914 -14.860936 5.116403 -1.114534 19.585331 -4.800598 -4.742356 
21.013481 52.159809 67.188217 -2.128906 0.869141 17.519531 28.899456 -11.503584 -7.458978 -10.585938 12.285156 7.119140 51.063168 8.107644 2.471410 -56.318359 -0.615234 -9.951278 2.000000 -2.000000 0.000000 -91.044922 -7.958984 22.684195 -55.680183 -1.681023 -2.206474 -1.839172 54.161819 4.966475 -2.000000 2.000000 0.000000 89.375000 -21.748049 2.734375 51.428314 1.878367 -2.068162 9.350981 -56.238792 -9.150587 9.279885 4.526760 -9.832726 16.762703 -5.380806 -1.917134 -8.036376 7.721084 -3.452641 -4.784412 -6.313173 -26.375134 -14.860222 5.113376 -1.153210 20.987593 -6.156415 -1.360462 
20.725229 52.191311 68.160362 -1.767578 0.869141 18.583982 29.121994 -11.243725 -7.928684 -10.556641 12.626954 7.062682 51.063168 8.107644 2.471410 -57.705078 -0.488281 -9.238281 2.000000 -2.000000 0.000000 -89.687500 -6.738282 22.929688 -55.504131 -1.680455 -2.196729 0.516509 55.602901 7.763709 -2.000000 2.000000 0.000000 90.175781 -20.634766 1.236793 51.602566 1.698904 -2.010149 7.206421 -55.317936 -8.325416 9.256848 5.281639 -11.339437 17.424921 -5.097495 -1.751535 -6.144262 7.623184 -4.191371 -6.912945 -7.476542 -24.728344 -8.323229 4.839834 -1.011126 18.656710 -6.556014 1.100979 
20.290712 52.222824 68.966682 -1.240234 0.683594 19.140743 29.324335 -11.139330 -8.094069 -10.478517 13.291017 6.943360 51.063168 8.107644 2.471410 -59.326168 -0.878906 -8.447416 2.000000 -2.000000 0.000000 -88.974609 -4.931641 22.518692 -55.152008 -1.698817 -2.176100 2.513061 56.815159 9.876086 -2.000000 2.000000 0.000000 90.859375 -19.052734 -0.286389 51.778904 1.680543 -2.030774 5.221601 -54.667126 -7.577571 9.065044 5.814264 -11.833909 18.508558 -5.068600 -1.857858 -3.676580 7.323890 -4.798564 -9.129889 -8.103085 -24.586288 -2.009879 5.229505 0.011318 15.607125 -8.175651 1.114389 
19.753202 52.277973 70.145836 -0.722656 0.498047 19.316406 29.536751 -10.968159 -8.411530 -10.605469 13.974609 6.779703 51.063168 8.107644 2.471410 -60.761719 -1.093750 -7.480655 2.000000 -2.000000 0.000000 -88.349609 -2.607422 21.015623 -54.976223 -1.698817 -2.176100 3.146298 58.398575 9.974237 -2.000000 2.000000 0.000000 91.005859 -17.509766 -0.205078 51.954704 1.670794 -2.031341 5.713786 -54.240955 -8.600890 8.506070 6.512983 -11.925444 20.247629 -5.018496 -1.995905 -0.376588 6.407053 -4.754413 -10.162519 -7.952059 -23.635242 1.492710 5.229537 -0.184237 12.766806 -8.867124 1.169507 
19.182947 52.333118 71.272003 0.000000 0.527344 19.306612 29.387592 -10.794738 -8.707339 -10.947266 14.179688 6.582032 51.063168 8.107644 2.471410 -61.669922 -1.210938 -6.904504 2.000000 -2.000000 0.000000 -87.998047 0.253906 19.267635 -54.448067 -1.706862 -2.146295 4.119895 59.973885 10.010674 -2.000000 2.000000 0.000000 91.396484 -16.015625 0.332031 51.954704 1.670794 -2.031341 6.759385 -53.966141 -10.005965 7.867954 7.066980 -12.071239 21.665018 -4.897256 -2.259186 4.280506 5.907824 -5.077139 -10.517515 -7.451074 -23.289114 4.138457 5.212605 0.036801 10.747663 -9.434107 1.189897 
18.717068 52.348873 73.271950 0.869141 0.341797 18.974653 28.713381 -10.644076 -8.970054 -11.337892 13.876954 6.552734 51.063168 8.107644 2.471410 -61.845703 -1.191406 -6.376954 2.000000 -2.000000 0.000000 -87.792969 4.208984 17.529295 -54.095978 -1.705726 -2.126805 4.485236 62.084751 9.119675 -2.000000 2.000000 0.000000 92.089844 -14.990235 0.966797 52.130764 1.661614 -2.041653 7.330332 -54.068920 -11.100039 7.106999 7.731449 -12.218323 22.542576 -4.858343 -2.354390 9.920941 5.130506 -4.971251 -10.633609 -6.834105 -23.319008 5.904104 5.181368 0.475880 8.776510 -9.879662 0.580901 
18.172270 52.356758 74.933540 1.757813 0.166016 18.613281 28.027803 -10.332583 -9.160397 -11.748048 13.408203 6.298829 51.063168 8.107644 2.471410 -61.679688 -1.552734 -5.791016 2.000000 -2.000000 0.000000 -87.851563 8.623047 15.187015 -53.920177 -1.715475 -2.126236 4.448641 63.500671 9.006042 -2.000000 2.000000 0.000000 92.705078 -15.332033 1.794293 51.956226 1.860006 -2.088787 6.594095 -53.759628 -10.555217 7.026962 8.314214 -12.188501 22.391768 -4.869001 -2.304461 16.088350 4.333154 -5.438969 -10.445507 -5.951720 -23.197729 6.784418 5.163620 0.743274 7.032103 -10.108831 -0.022770 
17.754185 52.569458 76.580307 2.812500 0.166016 18.105495 27.359673 -10.090393 -9.583314 -12.333983 12.949220 6.027579 51.063168 8.107644 2.471410 -61.757813 -2.236328 -4.951553 2.000000 -2.000000 0.000000 -88.818359 13.798828 11.916390 -53.918816 -1.575578 -2.075725 3.238881 64.590309 8.282081 -2.000000 2.000000 0.000000 92.949219 -15.830078 3.476563 51.778641 1.679975 -2.021028 6.277078 -53.893742 -10.758126 7.096639 8.901695 -12.119823 21.310526 -4.916077 -2.223482 22.699202 3.295389 -5.386261 -9.704195 -4.898746 -22.903326 6.785622 5.184088 0.558913 5.638428 -10.400350 -0.824746 
17.333088 52.860950 78.250809 3.867188 0.166016 17.587908 26.508913 -9.943346 -9.837157 -13.115233 12.333985 5.822399 51.063168 8.107644 2.471410 -61.640625 -2.929687 -4.296875 2.000000 -2.000000 0.000000 -90.390625 18.974611 7.119140 -54.084877 -1.546330 -2.077431 1.869307 65.281059 8.876548 -2.000000 2.000000 0.000000 93.232422 -16.572266 4.811669 51.602585 1.689155 -2.010716 5.499156 -54.229610 -10.558049 6.950606 9.409394 -11.912105 19.546709 -4.961642 -1.908904 32.783894 1.810666 -5.482326 -9.060162 -3.884255 -22.616613 6.783844 5.164996 0.723840 4.346238 -10.250354 -1.387300 
16.937218 53.097294 79.376274 4.726563 0.000000 16.855469 25.644779 -9.541443 -10.159022 -13.701173 11.689453 5.683593 51.063168 8.107644 2.471410 -61.728519 -3.798828 -3.427735 2.000000 -2.000000 0.000000 -92.109375 23.300783 2.832031 -54.439911 -1.358167 -2.205751 0.189923 65.739853 8.946887 -2.000000 2.000000 0.000000 93.544922 -16.728516 5.898438 51.426800 1.689155 -2.010716 5.181901 -54.422695 -10.243364 7.739615 10.138103 -11.430716 16.745615 -5.117950 -1.706589 42.673637 0.547663 -4.718201 -8.016069 -3.055248 -21.984102 6.083785 5.205086 0.218370 4.035635 -10.829126 -1.903282 
16.554424 53.294243 80.962891 5.791016 0.000000 16.152344 24.967152 -9.378676 -10.426342 -14.121094 11.044922 5.597574 51.063168 8.107644 2.471410 -61.611324 -4.492187 -2.774203 2.000000 -2.000000 0.000000 -92.998047 26.269533 -0.347239 -54.975510 -1.648368 -2.149707 -1.319368 66.133179 9.053773 -2.000000 2.000000 0.000000 93.847656 -16.669922 6.276496 51.426800 1.689155 -2.010716 5.657203 -54.777691 -10.469579 9.819399 11.555162 -10.448042 11.278594 -5.156751 -1.224007 52.923458 -0.575898 -3.861085 -6.851350 -1.998102 -22.138275 4.656473 5.204423 0.528349 3.993505 -10.900919 -2.551675 
16.187254 53.373020 82.529343 6.679688 0.166016 15.664081 24.283278 -9.468496 -10.605462 -14.687501 10.410157 5.312500 51.063168 8.107644 2.471410 -61.328125 -5.048828 -2.177735 2.000000 -2.000000 0.000000 -93.720703 27.900391 -2.173165 -55.667847 -1.450545 -2.112355 -3.054392 66.295906 9.074420 -2.000000 2.000000 0.000000 94.169922 -16.298828 5.859375 51.602585 1.689155 -2.010716 6.766346 -54.747543 -11.260531 15.133580 11.969340 -8.034570 2.946839 -5.268067 -0.493652 52.163334 1.303014 -0.966864 -5.463300 -1.196375 -21.319191 3.071519 5.197022 0.279395 3.144719 -10.577927 -3.123073 
15.836166 53.420292 84.508232 7.558594 0.166016 14.960964 23.590174 -9.406418 -10.715913 -15.068360 10.078124 5.322266 51.063168 8.107644 2.471410 -60.849609 -5.615234 -1.788065 2.000000 -2.000000 0.000000 -94.160156 29.443361 -3.852620 -56.195755 -1.432183 -2.132983 -3.164411 66.560127 9.749633 -2.000000 2.000000 0.000000 94.482422 -16.074221 5.329327 51.778641 1.679975 -2.021028 7.312170 -54.732899 -11.660351 25.812561 12.993352 -4.225832 -14.274891 -5.157218 0.650449 55.345711 2.466368 2.444903 -3.832149 -0.591053 -20.219677 0.965595 5.409651 -0.269088 2.962657 -10.789650 -2.886209 
15.500123 53.436054 85.229729 8.242188 0.341797 14.628952 23.233725 -9.662269 -10.618587 -15.273438 9.755859 5.390625 51.063168 8.107644 2.471410 -60.166016 -5.859375 -1.640625 2.000000 -2.000000 0.000000 -94.404297 30.498049 -4.882813 -56.559231 -1.593281 -2.211592 -0.542830 66.863876 11.767780 -2.000000 2.000000 0.000000 95.048828 -16.464844 5.514811 51.780178 1.859438 -2.079041 6.583371 -54.199039 -11.514153 27.094582 12.878106 -1.989812 -14.275969 -5.010580 0.825026 49.860050 3.475589 6.323165 -2.260493 0.209041 -19.711050 -1.462391 5.402139 -0.133678 3.382097 -10.824823 -2.793321 
